<?xml version="1.0" encoding="iso-8859-1"?>
<!-- Generator: Adobe Illustrator 16.0.0, SVG Export Plug-In . SVG Version: 6.00 Build 0)  -->
<!DOCTYPE svg PUBLIC "-//W3C//DTD SVG 1.1//EN" "http://www.w3.org/Graphics/SVG/1.1/DTD/svg11.dtd">
<svg xmlns="http://www.w3.org/2000/svg" xmlns:xlink="http://www.w3.org/1999/xlink" version="1.1" id="Capa_1" x="0px" y="0px" width="512px" height="512px" viewBox="0 0 949.359 949.358" style="enable-background:new 0 0 949.359 949.358;" xml:space="preserve">
<g>
	<g>
		<polygon points="471.464,912.626 300.583,912.626 277.646,949.356 471.464,949.356 672.079,949.356 649.031,912.626   " fill="#3f51b5"/>
		<path d="M712.808,0H471.464H236.55c-58.248,0-105.467,47.219-105.467,105.467v843.89h76.503l103.166-164.393    c-24.046-5.369-47.576-20.062-65.247-40.91c-20.084-23.695-31.127-53.266-31.093-83.234V284.487    c-0.018-16.5,3.32-32.705,9.921-48.166c6.436-15.075,15.637-28.662,27.345-40.383c24.657-24.682,57.76-38.274,93.21-38.271h0.109    h126.467h3.638h129.665h0.109c35.262,0,68.228,13.572,92.825,38.215c11.706,11.729,20.903,25.323,27.338,40.405    c6.604,15.483,9.938,31.707,9.907,48.173v376.316c0.053,30.004-10.979,59.579-31.065,83.275    c-17.67,20.849-41.209,35.542-65.274,40.914l103.166,164.393h76.502V105.467C818.275,47.219,771.056,0,712.808,0z     M432.435,127.436c-16.044-0.058-29.117-13.131-29.149-29.142c0.032-16.243,13.105-29.324,29.149-29.15    c16.202-0.174,29.267,12.906,29.143,29.15C461.703,114.305,448.629,127.377,432.435,127.436z M510.159,127.436    c-16.186-0.058-29.259-13.131-29.15-29.142c-0.108-16.243,12.965-29.324,29.15-29.15c16.068-0.166,29.149,12.907,29.149,29.15    C539.308,114.305,526.227,127.377,510.159,127.436z" fill="#3f51b5"/>
		<path d="M709.947,660.82V284.46c0.1-53.031-44.562-101.793-105.07-101.793c-0.037,0-0.072,0-0.109,0H475.102h-3.638H344.999    c-0.033,0-0.076,0-0.109,0c-60.88-0.005-105.535,48.759-105.477,101.793v376.36c-0.058,51.552,40.271,93.8,80.669,100.506h151.383    h157.812C669.715,754.611,710.038,712.372,709.947,660.82z M416.918,239.64h54.546h60.976c8.748,0,10.024,4.199,10.024,9.38    v24.433c0,5.18-1.276,9.38-10.024,9.38h-60.976h-54.546c-8.748,0-8.454-4.199-8.454-9.38V249.02    C408.464,243.839,408.17,239.64,416.918,239.64z M340.215,702.859c-24.39,0-44.163-19.772-44.163-44.163    s19.772-44.162,44.163-44.162c24.39,0,44.162,19.771,44.162,44.162C384.378,683.086,364.605,702.859,340.215,702.859z     M320.838,525.226c-23.299,0-42.188-18.887-42.188-42.187V373.146c0-23.299,18.889-42.187,42.188-42.187h150.626H628.52    c23.3,0,42.188,18.888,42.188,42.187V483.04c0,23.299-18.888,42.187-42.188,42.187H471.464L320.838,525.226L320.838,525.226z     M564.98,658.696c0-24.391,19.772-44.162,44.162-44.162c24.391,0,44.163,19.771,44.163,44.162    c0,24.39-19.771,44.163-44.163,44.163C584.753,702.859,564.98,683.086,564.98,658.696z" fill="#3f51b5"/>
		<polygon points="471.464,824.597 355.556,824.597 332.198,862.002 471.464,862.002 617.265,862.002 593.794,824.597     474.679,824.597   " fill="#3f51b5"/>
	</g>
</g>
<g>
</g>
<g>
</g>
<g>
</g>
<g>
</g>
<g>
</g>
<g>
</g>
<g>
</g>
<g>
</g>
<g>
</g>
<g>
</g>
<g>
</g>
<g>
</g>
<g>
</g>
<g>
</g>
<g>
</g>
</svg>
