<?xml version="1.0" encoding="iso-8859-1"?>
<!-- Generator: Adobe Illustrator 19.0.0, SVG Export Plug-In . SVG Version: 6.00 Build 0)  -->
<svg xmlns="http://www.w3.org/2000/svg" xmlns:xlink="http://www.w3.org/1999/xlink" version="1.1" id="Layer_1" x="0px" y="0px" viewBox="0 0 512 512" style="enable-background:new 0 0 512 512;" xml:space="preserve" width="512px" height="512px">
<g>
	<g>
		<g>
			<path d="M282.034,64.217V34.712c0-5.207-3.471-8.678-8.678-8.678h-8.678V8.678C264.678,3.471,261.207,0,256,0     s-8.678,3.471-8.678,8.678v17.356h-8.678c-5.207,0-8.678,3.471-8.678,8.678v29.505c-37.315,10.414-65.085,43.39-68.556,83.308     h190.047C347.119,107.607,319.349,74.63,282.034,64.217z" fill="#FFFFFF"/>
			<path d="M4.339,347.119v156.203c0,5.207,3.471,8.678,8.678,8.678h95.458V338.441H13.017     C7.81,338.441,4.339,341.912,4.339,347.119z M73.763,451.254c0-5.207,3.471-8.678,8.678-8.678s8.678,3.471,8.678,8.678v26.034     c0,5.207-3.471,8.678-8.678,8.678s-8.678-3.471-8.678-8.678V451.254z M39.051,451.254c0-5.207,3.471-8.678,8.678-8.678     s8.678,3.471,8.678,8.678v26.034c0,5.207-3.471,8.678-8.678,8.678s-8.678-3.471-8.678-8.678V451.254z" fill="#FFFFFF"/>
			<path d="M498.983,338.441h-95.458V512h95.458c5.207,0,8.678-3.471,8.678-8.678V347.119     C507.661,341.912,504.19,338.441,498.983,338.441z M438.237,477.288c0,5.207-3.471,8.678-8.678,8.678s-8.678-3.471-8.678-8.678     v-26.034c0-5.207,3.471-8.678,8.678-8.678s8.678,3.471,8.678,8.678V477.288z M472.949,477.288c0,5.207-3.471,8.678-8.678,8.678     c-5.207,0-8.678-3.471-8.678-8.678v-26.034c0-5.207,3.471-8.678,8.678-8.678c5.207,0,8.678,3.471,8.678,8.678V477.288z" fill="#FFFFFF"/>
			<path d="M394.847,242.983h-17.356h-26.034v-78.102H160.542v78.102h-26.034h-17.356c-5.207,0-8.678,3.471-8.678,8.678     s3.471,8.678,8.678,8.678h8.678v78.102v8.678V512h34.712V355.797v-17.356v-78.102h8.678h8.678v78.102v17.356V512h156.203V355.797     v-17.356v-78.102h8.678h8.678v78.102v17.356V512h34.712V347.119v-8.678v-78.102h8.678c5.207,0,8.678-3.471,8.678-8.678     S400.054,242.983,394.847,242.983z M151.864,477.288c0,5.207-3.471,8.678-8.678,8.678s-8.678-3.471-8.678-8.678v-26.034     c0-5.207,3.471-8.678,8.678-8.678s8.678,3.471,8.678,8.678V477.288z M212.61,477.288c0,5.207-3.471,8.678-8.678,8.678     s-8.678-3.471-8.678-8.678v-95.458c0-5.207,3.471-8.678,8.678-8.678s8.678,3.471,8.678,8.678V477.288z M212.61,338.441h-17.356     v-78.102h17.356V338.441z M221.288,227.363c-5.207,0-8.678-3.471-8.678-8.678v-26.034c0-5.207,3.471-8.678,8.678-8.678     s8.678,3.471,8.678,8.678v26.034C229.966,223.024,226.495,227.363,221.288,227.363z M247.322,477.288     c0,5.207-3.471,8.678-8.678,8.678c-5.207,0-8.678-3.471-8.678-8.678v-95.458c0-5.207,3.471-8.678,8.678-8.678     c5.207,0,8.678,3.471,8.678,8.678V477.288z M247.322,338.441h-17.356v-78.102h17.356V338.441z M256,227.363     c-5.207,0-8.678-3.471-8.678-8.678v-26.034c0-5.207,3.471-8.678,8.678-8.678s8.678,3.471,8.678,8.678v26.034     C264.678,223.024,261.207,227.363,256,227.363z M282.034,477.288c0,5.207-3.471,8.678-8.678,8.678s-8.678-3.471-8.678-8.678     v-95.458c0-5.207,3.471-8.678,8.678-8.678s8.678,3.471,8.678,8.678V477.288z M282.034,338.441h-17.356v-78.102h17.356V338.441z      M290.712,227.363c-5.207,0-8.678-3.471-8.678-8.678v-26.034c0-5.207,3.471-8.678,8.678-8.678c5.207,0,8.678,3.471,8.678,8.678     v26.034C299.39,223.024,295.919,227.363,290.712,227.363z M316.746,477.288c0,5.207-3.471,8.678-8.678,8.678     s-8.678-3.471-8.678-8.678v-95.458c0-5.207,3.471-8.678,8.678-8.678s8.678,3.471,8.678,8.678V477.288z M316.746,338.441H299.39     v-78.102h17.356V338.441z M377.492,477.288c0,5.207-3.471,8.678-8.678,8.678c-5.207,0-8.678-3.471-8.678-8.678v-26.034     c0-5.207,3.471-8.678,8.678-8.678c5.207,0,8.678,3.471,8.678,8.678V477.288z" fill="#FFFFFF"/>
		</g>
	</g>
</g>
<g>
</g>
<g>
</g>
<g>
</g>
<g>
</g>
<g>
</g>
<g>
</g>
<g>
</g>
<g>
</g>
<g>
</g>
<g>
</g>
<g>
</g>
<g>
</g>
<g>
</g>
<g>
</g>
<g>
</g>
</svg>
