<?xml version="1.0" encoding="iso-8859-1"?>
<!-- Generator: Adobe Illustrator 18.0.0, SVG Export Plug-In . SVG Version: 6.00 Build 0)  -->
<!DOCTYPE svg PUBLIC "-//W3C//DTD SVG 1.1//EN" "http://www.w3.org/Graphics/SVG/1.1/DTD/svg11.dtd">
<svg xmlns="http://www.w3.org/2000/svg" xmlns:xlink="http://www.w3.org/1999/xlink" version="1.1" id="Capa_1" x="0px" y="0px" viewBox="0 0 460.445 460.445" style="enable-background:new 0 0 460.445 460.445;" xml:space="preserve" width="512px" height="512px">
<g>
	<path d="M444.318,48.12l-43.282-2.939V34.374c0-4.894-3.967-8.862-8.862-8.862h-43.649c-4.894,0-8.862,3.968-8.862,8.862v7.515   c7.795,0.525,15.556,3.069,22.467,7.805c20.588,14.108,25.841,42.234,11.732,62.822l-7.739,11.293h26.05   c4.894,0,8.862-3.968,8.862-8.862V104.14l43.282-2.939c6.52-0.443,11.582-5.861,11.582-12.396v-28.29   C455.901,53.981,450.838,48.563,444.318,48.12z" fill="#FFFFFF"/>
	<path d="M234.435,98.033c26.72,7.209,54.009-8.728,61.141-35.158c7.175-26.592-8.566-53.966-35.158-61.141   c-26.592-7.175-53.966,8.566-61.141,35.158C192.102,63.485,207.843,90.858,234.435,98.033z" fill="#FFFFFF"/>
	<path d="M349.36,68.333c-10.295-7.053-24.358-4.427-31.411,5.866l-44.182,64.474l-73.257-1.043L245,126.531   c-56.086-15.133-52.321-14.138-53.595-14.412c-0.357-23.507-19.508-46.894-48.247-56.165   c-34.407-11.101-69.505,2.235-78.394,29.785c-5.458,16.917,0.249,35.254,13.424,49.464c-24.994,4.376-48.084,21.735-61.582,47.233   c22.919,8.993,42.257,9.572,57.616,1.691c13.928-7.145,22.711-20.151,28.082-31.761c2.931-6.335,4.845-12.25,6.025-16.572   c-17.845-9.472-25.574-27.503-20.681-42.672c6.048-18.745,28.496-27.608,50.169-20.618c21.734,7.013,34.592,27.67,28.662,46.05   c-5.272,16.339-22.502,24.584-40.255,22.718c-1.277,4.59-3.204,10.471-6.01,16.845c-6.606,15.002-18.085,32.715-37.454,42.652   c-23.218,11.911-49.181,8.479-73.365-1.078c-15.32,48.424,6.877,98.333,49.039,110.993c16.738,5.026,34.081,3.414,49.782-3.407   c0.303,1.686-1.363-4.912,25.5,98.757l-77.03-0.403c-0.048-0.001-0.097-0.001-0.145-0.001c-14.908,0-27.032,12.046-27.11,26.973   c-0.079,14.974,11.997,27.177,26.972,27.255l112.255,0.588c0.047,0.001,0.094,0.001,0.142,0.001   c8.362-0.001,16.261-3.859,21.399-10.464c5.167-6.642,6.959-15.306,4.848-23.451l-25.632-98.921l77.599,11.374l15.387,98.527   c2.312,14.81,16.195,24.917,30.973,22.605c14.795-2.311,24.916-16.177,22.605-30.973L297.51,310.87   c-1.833-11.741-11.099-20.921-22.857-22.644l-30.597-4.484l22.215-82.338l-66.405-18.589l85.37,1.216   c0.108,0.001,0.216,0.002,0.323,0.002c7.445,0,14.422-3.67,18.638-9.822l51.029-74.467C362.279,89.45,359.653,75.386,349.36,68.333   z" fill="#FFFFFF"/>
	<path d="M148.68,112.811c2.717-8.42-4.887-18.727-16.604-22.507c-12.278-3.963-24.035,0.525-26.626,8.56   c-2.74,8.49,4.907,18.735,16.603,22.507C134.349,125.338,146.091,120.838,148.68,112.811z" fill="#FFFFFF"/>
</g>
<g>
</g>
<g>
</g>
<g>
</g>
<g>
</g>
<g>
</g>
<g>
</g>
<g>
</g>
<g>
</g>
<g>
</g>
<g>
</g>
<g>
</g>
<g>
</g>
<g>
</g>
<g>
</g>
<g>
</g>
</svg>
